<svg width="33" height="32" viewBox="0 0 33 32" fill="none" xmlns="http://www.w3.org/2000/svg">
<path d="M11.1447 5.72402C11.3947 5.47397 11.7339 5.3335 12.0875 5.3335H20.0875C20.4411 5.3335 20.7802 5.47397 21.0303 5.72402L23.3064 8.00016H26.7542C28.2269 8.00016 29.4208 9.19407 29.4208 10.6668V24.0002C29.4208 25.4729 28.2269 26.6668 26.7542 26.6668H5.42082C3.94806 26.6668 2.75415 25.4729 2.75415 24.0002V10.6668C2.75415 9.19407 3.94806 8.00016 5.42082 8.00016H8.86853L11.1447 5.72402ZM12.6398 8.00016L10.3636 10.2763C10.1136 10.5264 9.77444 10.6668 9.42082 10.6668L5.42082 10.6668V24.0002H26.7542V10.6668H22.7542C22.4005 10.6668 22.0614 10.5264 21.8113 10.2763L19.5352 8.00016H12.6398ZM16.0875 14.0002C14.6147 14.0002 13.4208 15.1941 13.4208 16.6668C13.4208 18.1396 14.6147 19.3335 16.0875 19.3335C17.5602 19.3335 18.7542 18.1396 18.7542 16.6668C18.7542 15.1941 17.5602 14.0002 16.0875 14.0002ZM10.7542 16.6668C10.7542 13.7213 13.142 11.3335 16.0875 11.3335C19.033 11.3335 21.4208 13.7213 21.4208 16.6668C21.4208 19.6123 19.033 22.0002 16.0875 22.0002C13.142 22.0002 10.7542 19.6123 10.7542 16.6668Z" fill="#B4B7C2"/>
</svg>
