<svg width="60" height="60" viewBox="0 0 60 60" fill="none" xmlns="http://www.w3.org/2000/svg">
<mask id="path-1-inside-1_2011_2292" fill="white">
<path d="M40.85 4.99951H19.175C10.7 4.99951 5 10.9495 5 19.7995V40.2245C5 49.0495 10.7 54.9995 19.175 54.9995H40.85C49.325 54.9995 55 49.0495 55 40.2245V19.7995C55 10.9495 49.325 4.99951 40.85 4.99951"/>
</mask>
<path d="M40.85 7.99951C42.5069 7.99951 43.85 6.65637 43.85 4.99951C43.85 3.34266 42.5069 1.99951 40.85 1.99951V7.99951ZM40.85 1.99951C39.1931 1.99951 37.85 3.34266 37.85 4.99951C37.85 6.65637 39.1931 7.99951 40.85 7.99951V1.99951ZM40.85 1.99951H19.175V7.99951H40.85V1.99951ZM19.175 1.99951C14.2092 1.99951 9.85231 3.75928 6.74287 7.00561C3.64418 10.2407 2 14.7242 2 19.7995H8C8 16.0248 9.20582 13.1083 11.0759 11.1559C12.9352 9.21474 15.6658 7.99951 19.175 7.99951V1.99951ZM2 19.7995V40.2245H8V19.7995H2ZM2 40.2245C2 45.2895 3.64553 49.7667 6.74412 52.9978C9.8532 56.2399 14.2093 57.9995 19.175 57.9995V51.9995C15.6657 51.9995 12.9343 50.7841 11.0746 48.8449C9.20447 46.8948 8 43.9846 8 40.2245H2ZM19.175 57.9995H40.85V51.9995H19.175V57.9995ZM40.85 57.9995C45.8163 57.9995 50.1676 56.2394 53.271 52.9951C56.363 49.7627 58 45.2858 58 40.2245H52C52 43.9882 50.7995 46.8988 48.9353 48.8477C47.0824 50.7846 44.3587 51.9995 40.85 51.9995V57.9995ZM58 40.2245V19.7995H52V40.2245H58ZM58 19.7995C58 14.7279 56.3644 10.2447 53.2722 7.00834C50.1685 3.75978 45.8164 1.99951 40.85 1.99951V7.99951C44.3586 7.99951 47.0815 9.21424 48.934 11.1532C50.7981 13.1043 52 16.0212 52 19.7995H58Z" fill="black" mask="url(#path-1-inside-1_2011_2292)"/>
<path d="M41.478 42C41.2124 42 40.9448 41.9312 40.6995 41.7874L27.74 32.0449C27.2818 31.7695 27 31.2734 27 30.7388V16.5187C27 15.6804 27.6812 15 28.5205 15C29.3599 15 30.0411 15.6804 30.0411 16.5187V29.8761L42.2585 39.1752C42.9783 39.6065 43.2155 40.538 42.7857 41.2589C42.4998 41.7347 41.995 42 41.478 42Z" fill="black"/>
</svg>
