<svg width="33" height="32" viewBox="0 0 33 32" fill="none" xmlns="http://www.w3.org/2000/svg">
<path d="M4.87524 5.66667C4.87524 4.19391 6.06915 3 7.54191 3H13.8752C15.348 3 16.5419 4.19391 16.5419 5.66667V12C16.5419 13.4728 15.348 14.6667 13.8752 14.6667H7.54191C6.06915 14.6667 4.87524 13.4728 4.87524 12V5.66667ZM13.8752 5.66667H7.54191V12H13.8752V5.66667ZM19.2086 5.66667C19.2086 4.19391 20.4025 3 21.8752 3H28.2086C29.6813 3 30.8752 4.19391 30.8752 5.66667V12C30.8752 13.4728 29.6813 14.6667 28.2086 14.6667H21.8752C20.4025 14.6667 19.2086 13.4728 19.2086 12V5.66667ZM28.2086 5.66667H21.8752V12H28.2086V5.66667ZM4.87524 20C4.87524 18.5272 6.06915 17.3333 7.54191 17.3333H13.8752C15.348 17.3333 16.5419 18.5272 16.5419 20V26.3333C16.5419 27.8061 15.348 29 13.8752 29H7.54191C6.06915 29 4.87524 27.8061 4.87524 26.3333V20ZM13.8752 20H7.54191V26.3333H13.8752V20ZM19.2086 20C19.2086 18.5272 20.4025 17.3333 21.8752 17.3333H28.2086C29.6813 17.3333 30.8752 18.5272 30.8752 20V26.3333C30.8752 27.8061 29.6813 29 28.2086 29H21.8752C20.4025 29 19.2086 27.8061 19.2086 26.3333V20ZM28.2086 20H21.8752V26.3333H28.2086V20Z" fill="#FFFFFF"/>
</svg>
