<svg width="22" height="22" viewBox="0 0 22 22" fill="none" xmlns="http://www.w3.org/2000/svg">
<g clip-path="url(#clip0_2261_1491)">
<path d="M10.8245 1.09982C10.8866 0.939542 11.1134 0.939542 11.1755 1.09982L13.7364 7.70715C13.7631 7.77606 13.8276 7.82296 13.9014 7.82707L20.9767 8.2208C21.1483 8.23035 21.2184 8.44604 21.0852 8.55465L15.5926 13.0319C15.5353 13.0786 15.5106 13.1545 15.5295 13.226L17.3415 20.0766C17.3854 20.2428 17.2019 20.3761 17.0575 20.283L11.102 16.4427C11.0399 16.4027 10.9601 16.4027 10.898 16.4427L4.94253 20.283C4.79807 20.3761 4.61459 20.2428 4.65855 20.0766L6.47047 13.226C6.48936 13.1545 6.4647 13.0786 6.40742 13.0319L0.914827 8.55465C0.781588 8.44604 0.851669 8.23035 1.0233 8.2208L8.09858 7.82707C8.17237 7.82296 8.23693 7.77605 8.26364 7.70715L10.8245 1.09982Z" fill="#FFB03B"/>
</g>
<defs>
<clipPath id="clip0_2261_1491">
<rect width="22" height="22" fill="white"/>
</clipPath>
</defs>
</svg>
