<svg width="60" height="60" viewBox="0 0 60 60" fill="none" xmlns="http://www.w3.org/2000/svg">
<path d="M11.8068 51.4182L11.7956 51.4182C11.7922 51.418 11.7888 51.4178 11.7854 51.4177C11.165 51.3862 10.5577 51.2526 9.97897 51.0186C7.15757 49.8721 5.78156 46.6686 6.87446 43.8424L25.1245 11.8693L25.1346 11.8513C25.6265 10.9612 26.3769 10.2082 27.2983 9.69804L27.2985 9.69793C29.9856 8.20968 33.3879 9.18903 34.8744 11.8747L34.8844 11.8924L53.0217 43.6333C53.3401 44.4012 53.4599 44.9851 53.4913 45.5641C53.568 47.056 53.0615 48.479 52.0629 49.5861C51.0721 50.6846 49.7217 51.3324 48.2468 51.4157L11.9868 51.4182H11.9867H11.8068Z" stroke="white" stroke-width="3" stroke-linecap="round" stroke-linejoin="round"/>
<path d="M30 22.5V36.5" stroke="white" stroke-width="3" stroke-linecap="round"/>
<path fill-rule="evenodd" clip-rule="evenodd" d="M28 43C28 41.8954 28.8919 41 29.9921 41H30.0079C31.1081 41 32 41.8954 32 43C32 44.1046 31.1081 45 30.0079 45H29.9921C28.8919 45 28 44.1046 28 43Z" fill="white"/>
</svg>
