<svg width="33" height="32" viewBox="0 0 33 32" fill="none" xmlns="http://www.w3.org/2000/svg">
<path d="M29.4207 8.13317C29.0207 7.8665 28.4873 7.8665 28.0873 8.13317L22.2207 12.1332V9.33317C22.2207 7.8665 21.0207 6.6665 19.554 6.6665H6.08732C4.62065 6.6665 3.42065 7.8665 3.42065 9.33317V22.6665C3.42065 24.1332 4.62065 25.3332 6.08732 25.3332H19.4207C20.8873 25.3332 22.0873 24.1332 22.0873 22.6665V19.8665L27.954 23.8665C28.2207 23.9998 28.4873 24.1332 28.754 24.1332C29.0207 24.1332 29.154 24.1332 29.4207 23.9998C29.8207 23.7332 30.0873 23.3332 30.0873 22.7998V9.33317C30.0873 8.79984 29.8207 8.39984 29.4207 8.13317ZM19.4207 22.6665H6.08732V9.33317H19.4207V14.6665V17.3332V22.6665ZM27.4207 20.1332L22.0873 16.5332V15.3332L27.4207 11.7332V20.1332Z" fill="#B4B7C2"/>
</svg>
